<svg xmlns="http://www.w3.org/2000/svg" width="20.098" height="24.423" viewBox="0 0 20.098 24.423">
  <g id="article" transform="translate(-52.063)">
    <path id="Path_3320" data-name="Path 3320" d="M117.3,140H102.6c-.3,0-.536.145-.536.324s.24.324.536.324h14.7c.3,0,.536-.145.536-.324S117.6,140,117.3,140Z" transform="translate(-47.838 -132.604)" fill="#ff8340"/>
    <path id="Path_3321" data-name="Path 3321" d="M117.3,260H102.6c-.3,0-.536.145-.536.324s.24.324.536.324h14.7c.3,0,.536-.145.536-.324S117.6,260,117.3,260Z" transform="translate(-47.838 -246.264)" fill="#ff8340"/>
    <path id="Path_3322" data-name="Path 3322" d="M228.911,300h-3.587a.324.324,0,0,0,0,.649h3.587a.324.324,0,1,0,0-.649Z" transform="translate(-160.632 -284.15)" fill="#ff8340"/>
    <path id="Path_3323" data-name="Path 3323" d="M71.691,0H56.917L56.87,0l-.034,0h-.011l-.04.008h0l-.039.012h0L56.7.044l-.006,0-.032.016-.008,0-.028.017L56.619.09l-.031.024,0,0L52.2,3.792l0,0-.028.026-.008.009-.02.022-.006.008-.018.025,0,.006c-.006.01-.011.019-.016.029l0,0c-.005.011-.01.021-.014.032v0a.318.318,0,0,0-.01.033s0,.006,0,.009,0,.019-.005.029a.33.33,0,0,0,0,.039V24.029a.437.437,0,0,0,.47.394H71.691a.437.437,0,0,0,.47-.394V.394A.437.437,0,0,0,71.691,0ZM56.448,1.345V3.677H53.667Zm14.774,22.29H53V4.464h3.915a.437.437,0,0,0,.47-.394V.788H71.222V23.635Z" transform="translate(0 0)" fill="#ff8340"/>
    <path id="Path_3324" data-name="Path 3324" d="M152.387,70.649h6.741a.324.324,0,1,0,0-.649h-6.741a.324.324,0,1,0,0,.649Z" transform="translate(-91.528 -66.973)" fill="#ff8340"/>
    <path id="Path_3325" data-name="Path 3325" d="M228.911,180h-3.587a.324.324,0,0,0,0,.649h3.587a.324.324,0,1,0,0-.649Z" transform="translate(-160.632 -170.49)" fill="#ff8340"/>
    <path id="Path_3326" data-name="Path 3326" d="M228.911,220h-3.587a.324.324,0,0,0,0,.649h3.587a.324.324,0,1,0,0-.649Z" transform="translate(-160.632 -208.377)" fill="#ff8340"/>
    <path id="Path_3327" data-name="Path 3327" d="M105.974,300.649a.324.324,0,1,0,0-.649h-3.587a.324.324,0,0,0-.324.324v3.46a.324.324,0,0,0,.324.324h3.587a.324.324,0,0,0,.324-.324v-2.162a.324.324,0,1,0-.649,0v1.838h-2.938v-2.811Z" transform="translate(-46.442 -283.529)" fill="#ff8340"/>
    <path id="Path_3328" data-name="Path 3328" d="M102.387,220.649h3.587a.324.324,0,0,0,0-.649h-3.587a.324.324,0,0,0,0,.649Z" transform="translate(-46.442 -208.377)" fill="#ff8340"/>
    <path id="Path_3329" data-name="Path 3329" d="M226.749,380h-1.424a.324.324,0,0,0,0,.649h1.424a.324.324,0,0,0,0-.649Z" transform="translate(-161.516 -359.253)" fill="#ff8340"/>
    <path id="Path_3330" data-name="Path 3330" d="M228.911,340h-3.587a.324.324,0,0,0,0,.649h3.587a.324.324,0,1,0,0-.649Z" transform="translate(-160.632 -322.037)" fill="#ff8340"/>
    <path id="Path_3331" data-name="Path 3331" d="M102.387,180.649h3.587a.324.324,0,0,0,0-.649h-3.587a.324.324,0,0,0,0,.649Z" transform="translate(-46.442 -170.49)" fill="#ff8340"/>
  </g>
</svg>
