<svg xmlns="http://www.w3.org/2000/svg" width="25.344" height="27" viewBox="0 0 25.344 27">
  <g id="quiz" transform="translate(0 0)">
    <path id="Path_3332" data-name="Path 3332" d="M136.4,40.117h.846v.793H136.4Zm0,0" transform="translate(-129.206 -38.002)" fill="#ff8340"/>
    <path id="Path_3333" data-name="Path 3333" d="M168.492,40.117h.846v.793h-.846Zm0,0" transform="translate(-159.607 -38.002)" fill="#ff8340"/>
    <path id="Path_3334" data-name="Path 3334" d="M200.586,40.117h.846v.793h-.846Zm0,0" transform="translate(-190.009 -38.002)" fill="#ff8340"/>
    <path id="Path_3335" data-name="Path 3335" d="M5.87,20.679h6.987L14.1,19.436l-1.243-1.243H5.87V.793H16.078V5.447H21.1V4.436L16.665,0H5.077V18.193H0v2.486H2.485V18.987H12.529l.449.449-.449.45H3.384v.793H5.077v2.116H15.232V22H5.87Zm11-19.352L20.2,4.654H16.871ZM1.692,19.886h-.9v-.9h.9Zm0,0" transform="translate(0 0)" fill="#ff8340"/>
    <path id="Path_3336" data-name="Path 3336" d="M200.586,120.352h8.462v.794h-8.462Zm0,0" transform="translate(-190.009 -114.006)" fill="#ff8340"/>
    <path id="Path_3337" data-name="Path 3337" d="M200.586,80.234h4.654v.793h-4.654Zm0,0" transform="translate(-190.009 -76.004)" fill="#ff8340"/>
    <path id="Path_3338" data-name="Path 3338" d="M136.4,80.234h2.539v.793H136.4Zm0,0" transform="translate(-129.206 -76.004)" fill="#ff8340"/>
    <path id="Path_3339" data-name="Path 3339" d="M200.586,152.445h4.654v.793h-4.654Zm0,0" transform="translate(-190.009 -144.407)" fill="#ff8340"/>
    <path id="Path_3340" data-name="Path 3340" d="M138.884,120.352H136.4v2.486h2.486Zm-.793,1.692h-.9v-.9h.9Zm0,0" transform="translate(-129.206 -114.006)" fill="#ff8340"/>
    <path id="Path_3341" data-name="Path 3341" d="M200.586,192.563h8.462v.793h-8.462Zm0,0" transform="translate(-190.009 -182.409)" fill="#ff8340"/>
    <path id="Path_3342" data-name="Path 3342" d="M200.586,224.656h4.654v.793h-4.654Zm0,0" transform="translate(-190.009 -212.81)" fill="#ff8340"/>
    <path id="Path_3343" data-name="Path 3343" d="M138.884,192.563H136.4v2.486h2.486Zm-.793,1.692h-.9v-.9h.9Zm0,0" transform="translate(-129.206 -182.409)" fill="#ff8340"/>
    <path id="Path_3344" data-name="Path 3344" d="M200.586,264.777h8.462v.793h-8.462Zm0,0" transform="translate(-190.009 -250.815)" fill="#ff8340"/>
    <path id="Path_3345" data-name="Path 3345" d="M200.586,296.871h4.654v.793h-4.654Zm0,0" transform="translate(-190.009 -281.216)" fill="#ff8340"/>
    <path id="Path_3346" data-name="Path 3346" d="M136.4,267.263h2.486v-2.486H136.4Zm.794-1.692h.9v.9h-.9Zm0,0" transform="translate(-129.206 -250.815)" fill="#ff8340"/>
    <path id="Path_3347" data-name="Path 3347" d="M340.423,368.578a2.935,2.935,0,1,0,2.935,2.935A2.939,2.939,0,0,0,340.423,368.578Zm0,5.078a2.142,2.142,0,1,1,2.142-2.142A2.145,2.145,0,0,1,340.423,373.656Zm0,0" transform="translate(-319.691 -349.142)" fill="#ff8340"/>
    <path id="Path_3348" data-name="Path 3348" d="M310.156,130.82V119.352h-.793V130.82a4.638,4.638,0,1,0,.793,0Zm-.37,8.445a3.834,3.834,0,1,1,3.834-3.835A3.839,3.839,0,0,1,309.786,139.265Zm0,0" transform="translate(-289.053 -113.059)" fill="#ff8340"/>
    <path id="Path_3349" data-name="Path 3349" d="M372.252,401.277l-.717.73.554.561.956-.962v-1.434h-.793Zm0,0" transform="translate(-351.943 -379.07)" fill="#ff8340"/>
  </g>
</svg>
