<svg xmlns="http://www.w3.org/2000/svg" width="22.063" height="23.413" viewBox="0 0 22.063 23.413">
  <g id="pdf" transform="translate(-14.769)">
    <g id="Group_2831" data-name="Group 2831" transform="translate(14.769)">
      <g id="Group_2830" data-name="Group 2830">
        <path id="Path_3350" data-name="Path 3350" d="M36.706,6.336,30.741.138A.451.451,0,0,0,30.416,0h-8.89a1.806,1.806,0,0,0-1.8,1.8V8.1h-3.6a1.351,1.351,0,0,0-1.35,1.35V16.21a1.351,1.351,0,0,0,1.35,1.35h3.6v4.053a1.8,1.8,0,0,0,1.8,1.8h13.5a1.8,1.8,0,0,0,1.8-1.8V6.648A.45.45,0,0,0,36.706,6.336ZM30.528,1.216l4.9,5.088h-4.9ZM16.119,16.659a.45.45,0,0,1-.449-.449V9.454a.45.45,0,0,1,.449-.449H28.277a.45.45,0,0,1,.449.449V16.21a.45.45,0,0,1-.449.449Zm19.812,4.954a.9.9,0,0,1-.9.9h-13.5a.9.9,0,0,1-.9-.9V17.56h7.655a1.351,1.351,0,0,0,1.35-1.35V9.454a1.351,1.351,0,0,0-1.35-1.35H20.622V1.8a.9.9,0,0,1,.9-.9h8.1V6.754a.45.45,0,0,0,.45.45h5.853Z" transform="translate(-14.769 0)" fill="#ff8340"/>
      </g>
    </g>
    <g id="Group_2833" data-name="Group 2833" transform="translate(17.413 10.991)">
      <g id="Group_2832" data-name="Group 2832">
        <path id="Path_3351" data-name="Path 3351" d="M75.334,240.783a1.014,1.014,0,0,0-.557-.379,4.545,4.545,0,0,0-.929-.058H72.6v3.868h.781v-1.459h.509a4.458,4.458,0,0,0,.81-.055,1.131,1.131,0,0,0,.4-.183,1.061,1.061,0,0,0,.328-.381,1.262,1.262,0,0,0,.129-.6A1.2,1.2,0,0,0,75.334,240.783Zm-.669,1.065a.513.513,0,0,1-.244.19,2.019,2.019,0,0,1-.617.061h-.427V241h.377a3.749,3.749,0,0,1,.562.026.54.54,0,0,1,.314.171.5.5,0,0,1,.124.348A.52.52,0,0,1,74.666,241.847Z" transform="translate(-72.596 -240.346)" fill="#ff8340"/>
      </g>
    </g>
    <g id="Group_2835" data-name="Group 2835" transform="translate(21.014 10.991)">
      <g id="Group_2834" data-name="Group 2834">
        <path id="Path_3352" data-name="Path 3352" d="M154.462,241.4a1.69,1.69,0,0,0-.369-.627,1.293,1.293,0,0,0-.583-.356,2.787,2.787,0,0,0-.736-.074h-1.427v3.868h1.469a2.361,2.361,0,0,0,.691-.082,1.372,1.372,0,0,0,.549-.309,1.706,1.706,0,0,0,.414-.683,2.542,2.542,0,0,0,.119-.823A2.855,2.855,0,0,0,154.462,241.4Zm-.76,1.588a.819.819,0,0,1-.2.373.721.721,0,0,1-.315.161,2.125,2.125,0,0,1-.472.037h-.583V241h.351a3.536,3.536,0,0,1,.641.037.743.743,0,0,1,.361.182.885.885,0,0,1,.222.375,2.311,2.311,0,0,1,.079.689A2.523,2.523,0,0,1,153.7,242.991Z" transform="translate(-151.346 -240.346)" fill="#ff8340"/>
      </g>
    </g>
    <g id="Group_2837" data-name="Group 2837" transform="translate(24.924 10.991)">
      <g id="Group_2836" data-name="Group 2836">
        <path id="Path_3353" data-name="Path 3353" d="M239.5,241v-.654h-2.651v3.868h.781V242.57h1.615v-.654h-1.615V241Z" transform="translate(-236.846 -240.346)" fill="#ff8340"/>
      </g>
    </g>
  </g>
</svg>
