<svg xmlns="http://www.w3.org/2000/svg" width="26.959" height="26.959" viewBox="0 0 26.959 26.959"><defs><style>.a{fill:#ff8340;}</style></defs><path class="a" d="M32.587,20.818,22.7,14.078a.449.449,0,0,0-.7.371V27.929a.449.449,0,0,0,.7.371l9.885-6.74a.449.449,0,0,0,0-.742ZM22.9,27.079V15.3l8.638,5.889Z" transform="translate(-12.115 -7.71)"/><path class="a" d="M13.479,0A13.479,13.479,0,1,0,26.959,13.479,13.495,13.495,0,0,0,13.479,0Zm0,26.06A12.581,12.581,0,1,1,26.06,13.479,12.6,12.6,0,0,1,13.479,26.06Z"/></svg>